<?xml version="1.0" standalone="no"?>
<!DOCTYPE svg PUBLIC "-//W3C//DTD SVG 20010904//EN"
 "http://www.w3.org/TR/2001/REC-SVG-20010904/DTD/svg10.dtd">
<svg version="1.0" xmlns="http://www.w3.org/2000/svg"
 width="1000.000000pt" height="1000.000000pt" viewBox="0 0 1000.000000 1000.000000"
 preserveAspectRatio="xMidYMid meet">
<metadata>
Created by potrace 1.14, written by Peter Selinger 2001-2017
</metadata>
<g transform="translate(0.000000,1000.000000) scale(0.100000,-0.100000)"
fill="#000000" stroke="none">
<path d="M1099 9159 c-298 -43 -538 -277 -604 -588 -17 -81 -12 -233 10 -316
54 -206 201 -384 390 -475 157 -74 127 -72 1010 -76 756 -3 3617 -12 4483 -13
336 -1 411 -3 400 -14 -7 -7 -69 -60 -138 -117 -69 -58 -136 -115 -150 -126
-14 -12 -144 -122 -290 -244 -146 -122 -287 -241 -315 -265 -43 -36 -433 -366
-575 -485 -25 -21 -126 -106 -225 -190 -99 -83 -189 -159 -200 -169 -11 -9
-135 -113 -275 -231 -140 -118 -260 -219 -266 -225 -6 -5 -91 -77 -189 -160
-98 -82 -200 -168 -225 -190 -54 -47 -74 -64 -400 -339 -135 -114 -256 -217
-270 -229 -14 -12 -128 -110 -255 -217 -126 -107 -243 -207 -260 -221 -16 -15
-124 -107 -240 -204 -115 -98 -228 -195 -250 -214 -22 -20 -65 -56 -94 -81
-30 -25 -70 -59 -90 -76 -20 -17 -150 -130 -290 -250 -395 -340 -593 -512
-766 -669 -182 -165 -257 -250 -307 -349 -64 -127 -84 -214 -82 -366 4 -367
298 -674 684 -715 30 -3 71 -8 90 -10 141 -18 1105 -45 2120 -60 2103 -29
5121 -50 5210 -35 257 44 477 221 566 457 52 137 53 157 49 733 -2 294 -6
1053 -10 1685 -3 633 -8 1176 -11 1207 -8 90 -30 166 -78 263 -91 184 -256
319 -463 376 -100 28 -257 30 -358 5 -242 -61 -440 -241 -519 -472 -45 -132
-43 -32 -31 -1843 l7 -953 -969 6 c-532 4 -1157 9 -1388 11 -231 3 -631 7
-890 10 -729 7 -1410 17 -1413 20 -3 2 106 100 203 182 50 41 78 66 125 106
14 12 68 58 120 102 85 71 298 253 435 370 28 23 113 96 190 161 77 65 142
121 145 124 3 3 46 39 95 80 50 41 104 87 120 101 17 15 208 177 425 360 217
183 400 338 406 344 7 5 31 26 54 44 23 19 48 40 54 45 6 6 38 34 71 61 33 28
71 60 85 72 14 11 131 110 260 219 129 109 276 232 325 274 50 42 180 152 290
245 110 92 223 187 250 210 28 24 239 202 470 396 377 317 706 594 775 653 14
11 50 41 80 66 30 25 57 47 60 50 3 3 46 39 95 80 50 41 92 77 95 80 3 3 75
64 160 135 151 126 263 220 286 240 6 6 33 28 59 50 236 195 374 316 411 364
56 70 119 196 141 281 23 91 23 254 -1 351 -70 286 -316 508 -606 548 -48 7
-942 12 -2505 16 -1336 3 -3064 7 -3840 9 -775 2 -1435 0 -1466 -5z"/>
</g>
</svg>
